<?xml version="1.0" encoding="utf-8"?>
<!-- Generator: Adobe Illustrator 15.1.0, SVG Export Plug-In  -->
<!DOCTYPE svg PUBLIC "-//W3C//DTD SVG 1.1//EN" "http://www.w3.org/Graphics/SVG/1.1/DTD/svg11.dtd" [
	<!ENTITY ns_flows "http://ns.adobe.com/Flows/1.0/">
]>
<svg version="1.1"
	 xmlns="http://www.w3.org/2000/svg" xmlns:xlink="http://www.w3.org/1999/xlink" xmlns:a="http://ns.adobe.com/AdobeSVGViewerExtensions/3.0/"
	 x="0px" y="0px" width="101px" height="33px" viewBox="-0.098 -1.562 101 33"
	 overflow="visible" enable-background="new -0.098 -1.562 101 33" xml:space="preserve">
<defs>
</defs>
<path fill="#004587" d="M57.812,4.271H1.854c-0.797,0-1.444,0.648-1.444,1.443v18.387c0,0.796,0.647,1.443,1.444,1.443h55.958
	c0.794,0,1.442-0.647,1.442-1.443V5.714C59.254,4.919,58.606,4.271,57.812,4.271"/>
<path fill="#E20613" d="M59.254,10.342c-6.658,2.427-10.108,7.571-11.642,15.202h10.2c0.796,0,1.442-0.647,1.442-1.443V10.342z"/>
<path fill="#FFFFFF" d="M5.636,20.457c-0.925,0-1.657-0.245-1.914-0.437c-0.104-0.078-0.128-0.244-0.128-0.515v-6.438
	c0-0.668,0.205-0.822,1.234-0.822c2.724,0,4.408,1.76,4.408,4.483C9.235,19.12,7.937,20.457,5.636,20.457 M10.186,16.268
	c0-2.711-1.85-4.383-4.947-4.383c-0.785,0-1.516,0.065-2.184,0.065c-0.694,0-1.118-0.052-1.272-0.052
	c-0.168,0-0.27,0.078-0.27,0.153c0,0.234,0.346,0.129,0.655,0.309c0.373,0.221,0.411,0.502,0.411,1.005v6.026
	c0,0.487-0.039,0.782-0.296,1.002c-0.231,0.191-0.629,0.178-0.629,0.423c0,0.077,0.115,0.167,0.231,0.167
	c0.142,0,0.513-0.153,1.156-0.153c0.399,0,1.132,0.077,2.198,0.077C8.297,20.907,10.186,19.044,10.186,16.268"/>
<path fill="#FFFFFF" d="M14.415,16.949H11.96c-0.32,0-0.373-0.115-0.244-0.399l1.388-2.968c0.051-0.103,0.115-0.141,0.167-0.141
	c0.051,0,0.116,0.052,0.153,0.153l1.171,3.007c0.038,0.104,0.064,0.167,0.064,0.219C14.66,16.896,14.569,16.949,14.415,16.949
	 M17.602,20.483c-0.411-0.168-0.643-0.58-0.887-1.208l-2.917-7.429c-0.051-0.128-0.077-0.206-0.167-0.206
	c-0.103,0-0.141,0.053-0.206,0.181l-3.559,7.607c-0.206,0.45-0.411,0.783-0.668,0.978c-0.219,0.165-0.513,0.154-0.513,0.334
	c0,0.09,0.076,0.167,0.153,0.167c0.129,0,0.373-0.077,0.72-0.077c0.72,0,1.221,0.077,1.465,0.077c0.141,0,0.205-0.04,0.205-0.155
	c0-0.218-0.244-0.142-0.462-0.231c-0.321-0.128-0.476-0.333-0.476-0.565c0-0.192,0.077-0.397,0.192-0.654l0.63-1.362
	c0.142-0.309,0.23-0.475,0.578-0.475h2.891c0.334,0,0.438,0.101,0.552,0.397l0.669,1.735c0.09,0.219,0.128,0.372,0.128,0.487
	c0,0.231-0.142,0.348-0.424,0.45c-0.18,0.064-0.295,0.076-0.295,0.23c0,0.065,0.064,0.154,0.142,0.154
	c0.115,0,0.501-0.089,1.194-0.089c0.797,0,1.298,0.077,1.479,0.077c0.115,0,0.167-0.04,0.167-0.155
	C18.194,20.534,17.897,20.61,17.602,20.483"/>
<path fill="#FFFFFF" d="M26.96,12.478h1.671c0.502,0,0.874,0.204,1.041,0.526c0.141,0.271,0.05,0.605,0.282,0.605
	c0.142,0,0.167-0.116,0.154-0.335l-0.089-1.169c-0.013-0.155-0.09-0.22-0.271-0.22c-0.283,0-0.834,0.077-1.645,0.077h-4.01
	c-0.185,0-0.327,0.007-0.44,0.016c-0.023-0.053-0.07-0.079-0.15-0.079c-0.103,0-0.462,0.063-1.093,0.063
	c-0.436,0-0.783-0.063-1-0.063c-0.155,0-0.219,0.051-0.219,0.165c0,0.258,0.269,0.155,0.565,0.245
	c0.232,0.064,0.386,0.258,0.386,0.464c0,0.153-0.09,0.462-0.309,0.797l-1.414,2.209c-0.039,0.053-0.09,0.077-0.141,0.077
	c-0.027,0-0.065-0.039-0.117-0.115l-1.631-2.582c-0.129-0.205-0.192-0.374-0.192-0.541c0-0.194,0.09-0.282,0.282-0.346
	c0.154-0.053,0.244-0.026,0.244-0.22c0-0.103-0.051-0.153-0.18-0.153c-0.116,0-0.488,0.063-1.066,0.063
	c-0.63,0-1.028-0.077-1.221-0.077c-0.167,0-0.244,0.064-0.244,0.194c0,0.229,0.231,0.14,0.463,0.229
	c0.347,0.142,0.526,0.45,0.758,0.823l1.966,3.147c0.128,0.192,0.18,0.464,0.18,0.784v2.094c0,0.566,0,0.888-0.322,1.157
	c-0.295,0.245-0.719,0.192-0.719,0.45c0,0.103,0.077,0.165,0.206,0.165c0.103,0,0.566-0.076,1.349-0.076
	c0.489,0,0.913,0.076,1.273,0.076c0.18,0,0.244-0.036,0.244-0.179c0-0.256-0.373-0.115-0.681-0.359
	c-0.334-0.257-0.347-0.616-0.347-1.221V16.82c0-0.372,0.116-0.553,0.244-0.759l1.619-2.467c0.333-0.503,0.581-0.872,0.775-1.088
	c0.078-0.018,0.161-0.029,0.253-0.029H25.2c0.27,0,0.36,0.076,0.36,0.32v6.478c0,0.68,0,0.962-0.463,1.168
	c-0.347,0.155-0.758,0.053-0.758,0.335c0,0.116,0.089,0.181,0.244,0.181c0.218,0,0.694-0.115,1.426-0.115
	c0.604,0,1.093,0.087,1.465,0.087c0.192,0,0.282-0.062,0.282-0.191c0-0.231-0.282-0.129-0.706-0.321
	c-0.463-0.205-0.488-0.45-0.488-1.091v-6.516C26.562,12.542,26.665,12.478,26.96,12.478"/>
<path fill="#FFFFFF" d="M33.937,20.688c-1.246,0-2.261-0.604-2.942-1.747c-0.553-0.911-0.835-1.89-0.835-2.917
	c0-2.364,1.439-3.867,3.548-3.867c1.18,0,2.158,0.514,2.839,1.529c0.629,0.923,0.963,2.031,0.963,3.03
	C37.509,19.197,36.108,20.688,33.937,20.688 M37.227,13.056c-0.862-0.899-2.005-1.35-3.394-1.35c-1.272,0-2.416,0.475-3.276,1.363
	c-0.887,0.912-1.362,2.094-1.362,3.353c0,2.802,1.89,4.703,4.665,4.703c1.35,0,2.557-0.54,3.47-1.58
	c0.732-0.836,1.156-1.993,1.156-3.226C38.486,15.033,38.023,13.877,37.227,13.056"/>
<path fill="#FFFFFF" d="M59.254,9.754c-6.804,2.275-10.562,7.351-12.135,15.79H1.854c-0.797,0-1.444-0.647-1.444-1.443V5.715
	c0-0.796,0.647-1.444,1.444-1.444h55.958c0.794,0,1.442,0.648,1.442,1.444V9.754z M59.254,11.607
	c-0.443,0.298-0.872,0.611-1.282,0.951c-0.054,0.044-0.104,0.091-0.155,0.136h-2.654c1.209-0.849,2.567-1.544,4.092-2.083V11.607z
	 M59.254,12.694h-0.179c0.062-0.046,0.119-0.094,0.179-0.139V12.694z M59.254,15.313c-0.146,0.209-0.281,0.431-0.42,0.648h-2.973
	c0.677-0.926,1.43-1.755,2.256-2.489h1.137V15.313z M59.254,19.229h-1.257c0.373-0.833,0.785-1.65,1.257-2.43V19.229z
	 M59.254,22.497h-2.466c0.252-0.836,0.54-1.67,0.871-2.487h1.595V22.497z M59.254,24.101c0,0.796-0.648,1.443-1.442,1.443H56.02
	c0.153-0.75,0.331-1.509,0.54-2.268h2.694V24.101z M52.73,22.497c0.264-0.874,0.56-1.701,0.888-2.487h3.187
	c-0.307,0.79-0.588,1.618-0.84,2.487H52.73z M55.223,25.544h-3.25c0.157-0.785,0.335-1.539,0.531-2.268h3.25
	C55.56,24.01,55.377,24.759,55.223,25.544 M54.383,16.742c-0.475,0.772-0.905,1.602-1.296,2.487h-3.228
	c0.409-0.893,0.868-1.721,1.378-2.487H54.383z M55.323,16.742h3.039c-0.447,0.774-0.857,1.605-1.232,2.487h-3.172
	C54.367,18.34,54.822,17.51,55.323,16.742 M54.889,15.962h-3.107c0.698-0.929,1.481-1.755,2.353-2.489h2.829
	C56.207,14.222,55.513,15.049,54.889,15.962 M48.651,22.497c0.255-0.874,0.545-1.704,0.867-2.487h3.242
	c-0.313,0.787-0.599,1.614-0.854,2.487H48.651z M51.173,25.544h-3.255c0.151-0.788,0.327-1.539,0.52-2.268h3.253
	C51.499,24.005,51.327,24.759,51.173,25.544 M57.812,3.862H1.854C0.831,3.862,0,4.692,0,5.715v18.386
	c0,1.022,0.831,1.853,1.854,1.853h55.958c1.02,0,1.853-0.83,1.853-1.853V5.715C59.665,4.692,58.832,3.862,57.812,3.862"/>
<path fill="#FFFFFF" d="M2.63,22.095c-0.142,0-0.19,0.011-0.338,0.011c-0.173,0-0.277-0.011-0.303-0.011l-0.038,0.044
	c0,0.107,0.242-0.074,0.242,0.281v1.423c0,0.329-0.23,0.236-0.23,0.316l0.047,0.036c0.085,0,0.183-0.011,0.323-0.011
	c0.175,0,0.22,0.011,0.321,0.011c0.074,0,0.086-0.015,0.086-0.036c0-0.101-0.312,0.055-0.312-0.375v-1.497
	c0-0.09,0.065-0.09,0.16-0.09c0.341,0,0.617,0.192,0.617,0.551c0,0.268-0.178,0.411-0.48,0.411c-0.106,0-0.169-0.017-0.192-0.017
	l-0.03,0.025c0,0.054,0.173,0.069,0.203,0.069c0.631,0,0.72-0.451,0.72-0.569C3.425,22.225,3.006,22.095,2.63,22.095"/>
<path fill="#FFFFFF" d="M8.563,22.095c-0.053,0-0.107,0.011-0.164,0.011c-0.115,0-0.231-0.011-0.347-0.011l-0.029,0.029
	c0,0.114,0.276-0.012,0.276,0.293v0.961c0,0.35-0.128,0.717-0.686,0.717c-0.401,0-0.71-0.216-0.71-0.69V22.34
	c0-0.216,0.2-0.132,0.2-0.216l-0.096-0.029c-0.091,0-0.186,0.011-0.282,0.011c-0.08,0-0.154-0.011-0.231-0.011l-0.065,0.029
	c0,0.098,0.24,0.024,0.24,0.2v1.001c0,0.456,0.149,0.891,0.93,0.891c0.864,0,0.828-0.732,0.828-0.877v-0.92
	c0-0.273,0.175-0.208,0.175-0.291L8.563,22.095z"/>
<path fill="#FFFFFF" d="M12.644,24.116c-0.422,0-0.407-0.062-0.407-0.275v-0.666c0-0.027-0.016-0.068,0.213-0.068
	c0.683,0,0.695,0.381,0.695,0.571C13.145,23.854,13.038,24.116,12.644,24.116 M12.237,22.905v-0.491
	c0-0.171-0.016-0.221,0.171-0.221c0.3,0,0.57,0.182,0.57,0.501c0,0.138-0.024,0.321-0.511,0.321
	C12.202,23.016,12.237,22.999,12.237,22.905 M12.904,23.021c0-0.022,0.279-0.121,0.279-0.423c0-0.22-0.13-0.504-0.653-0.504
	c-0.237,0-0.355,0.011-0.474,0.011c-0.12,0-0.178-0.011-0.238-0.011l-0.08,0.041c0,0.06,0.264,0.03,0.264,0.255v1.461
	c0,0.232-0.104,0.246-0.137,0.257c-0.053,0.017-0.089,0.024-0.089,0.056l0.075,0.033c0.136,0,0.275-0.014,0.412-0.014
	c0.101,0,0.28,0.014,0.386,0.014c0.579,0,0.722-0.435,0.722-0.631C13.371,23.073,12.904,23.066,12.904,23.021"/>
<path fill="#FFFFFF" d="M17.94,23.771c-0.039,0-0.14,0.307-0.825,0.307c-0.25,0-0.226-0.072-0.226-0.246v-1.442
	c0-0.258,0.216-0.185,0.216-0.253l-0.056-0.041c-0.045,0-0.116,0.011-0.285,0.011c-0.146,0-0.237-0.011-0.299-0.011l-0.06,0.038
	c0,0.059,0.25,0.038,0.25,0.193v1.505c0,0.14-0.007,0.223-0.083,0.258c-0.096,0.048-0.125,0.041-0.131,0.077l0.044,0.029
	c0.119,0,0.244-0.008,0.362-0.011c0.225-0.006,0.451,0.011,0.677,0.011c0.13,0,0.196,0.007,0.291-0.101
	c0.072-0.076,0.148-0.181,0.148-0.287L17.94,23.771z"/>
<path fill="#FFFFFF" d="M21.516,23.943V22.35c0-0.223,0.214-0.154,0.214-0.226l-0.057-0.029c-0.092,0-0.184,0.011-0.276,0.011
	c-0.11,0-0.216-0.011-0.327-0.011l-0.029,0.032c0,0.066,0.236,0.006,0.24,0.223v1.521c0,0.294-0.232,0.196-0.232,0.281
	c0,0.029,0.009,0.046,0.062,0.046c0.042,0,0.105-0.014,0.286-0.014c0.128,0,0.256,0.014,0.324,0.014l0.06-0.031
	C21.78,24.077,21.516,24.146,21.516,23.943"/>
<path fill="#FFFFFF" d="M25.141,22.543c0-0.274,0.249-0.387,0.484-0.387c0.261,0,0.477,0.131,0.566,0.387l0.062,0.089l0.033-0.046
	l-0.044-0.402l-0.036-0.042l-0.062,0.032c-0.042,0-0.14-0.107-0.499-0.107c-0.341,0-0.659,0.183-0.659,0.56
	c0,0.774,1.205,0.454,1.205,1.026c0,0.312-0.276,0.47-0.558,0.47c-0.409,0-0.588-0.31-0.624-0.444c-0.015-0.063-0.015-0.1-0.056-0.1
	c-0.03,0-0.045,0.032-0.033,0.092l0.074,0.384c0.012,0.055,0.283,0.162,0.502,0.162c0.673,0,0.849-0.373,0.849-0.623
	C26.346,22.773,25.141,23.101,25.141,22.543"/>
<path fill="#FFFFFF" d="M31.341,23.923V22.35c0-0.204,0.199-0.154,0.199-0.208c0-0.018-0.005-0.047-0.084-0.047
	c-0.058,0-0.103,0.011-0.213,0.011c-0.056,0-0.211-0.011-0.308-0.011l-0.051,0.032c0,0.068,0.223,0.019,0.223,0.223v0.609
	l-0.024,0.085h-1.086l-0.045-0.053V22.35c0-0.223,0.214-0.166,0.214-0.226l-0.057-0.029c-0.092,0-0.183,0.011-0.276,0.011
	c-0.11,0-0.217-0.011-0.326-0.011l-0.047,0.032c0,0.066,0.255,0.006,0.258,0.223v1.521c0,0.293-0.232,0.195-0.232,0.28l0.033,0.046
	c0.011,0,0.044-0.013,0.255-0.013c0.158,0,0.374,0.013,0.413,0.013l0.047-0.025c0-0.092-0.282-0.026-0.282-0.229v-0.739l0.037-0.05
	h1.094l0.024,0.074v0.712c0,0.188-0.207,0.146-0.207,0.217l0.07,0.04c0.056,0,0.14-0.013,0.33-0.013
	c0.106,0,0.199,0.013,0.279,0.013l0.033-0.037C31.611,24.086,31.341,24.14,31.341,23.923"/>
<path fill="#FFFFFF" d="M35.204,23.943V22.35c0-0.223,0.214-0.154,0.214-0.226l-0.056-0.029c-0.092,0-0.184,0.011-0.276,0.011
	c-0.111,0-0.217-0.011-0.327-0.011l-0.03,0.032c0,0.066,0.238,0.006,0.24,0.223v1.521c0,0.294-0.231,0.196-0.231,0.281
	c0,0.029,0.009,0.046,0.062,0.046c0.042,0,0.105-0.014,0.286-0.014c0.128,0,0.256,0.014,0.323,0.014l0.059-0.031
	C35.468,24.077,35.204,24.146,35.204,23.943"/>
<path fill="#FFFFFF" d="M40.32,22.105c-0.095,0-0.181-0.012-0.27-0.012l-0.033,0.03c0,0.099,0.33-0.014,0.33,0.374v1.242
	l-0.008,0.03l-0.036-0.03l-1.416-1.577l-0.077-0.069l-0.137,0.012l-0.14-0.012l-0.044,0.03c0,0.108,0.36-0.062,0.36,0.554v1.096
	c0,0.415-0.261,0.285-0.261,0.39l0.039,0.032c0.021,0,0.175-0.011,0.279-0.011c0.146,0,0.229,0.011,0.299,0.011l0.033-0.039
	c0-0.081-0.261,0.024-0.261-0.243v-1.214c0-0.059,0.01-0.067,0.021-0.067l0.062,0.056l1.276,1.437
	c0.062,0.068,0.092,0.084,0.113,0.084c0.022,0,0.026-0.042,0.026-0.128v-1.719c0-0.216,0.176-0.164,0.176-0.241l-0.03-0.026
	C40.548,22.094,40.42,22.105,40.32,22.105"/>
<path fill="#FFFFFF" d="M45.851,23.092h-0.495l-0.068,0.032c0,0.076,0.258,0.014,0.258,0.152v0.459c0,0.253-0.348,0.388-0.618,0.388
	c-0.572,0-0.876-0.502-0.876-1.029c0-0.488,0.268-0.94,0.801-0.94c0.702,0,0.835,0.573,0.912,0.573l0.033-0.053l-0.031-0.389
	l-0.032-0.068l-0.077,0.052c-0.083,0-0.231-0.202-0.745-0.202c-0.631,0-1.111,0.444-1.111,1.087c0,0.657,0.406,1.062,1.063,1.062
	c0.528,0,0.608-0.201,0.914-0.299v-0.605c0-0.197,0.151-0.13,0.151-0.192L45.851,23.092z"/>
<path fill="#FFFFFF" d="M1.854,6.536v2.247c0,1.026,0.334,2.006,2.088,2.006c1.941,0,1.86-1.646,1.86-1.973V6.749
	c0-0.614,0.394-0.466,0.394-0.654L6.109,6.021c-0.119,0-0.24,0.025-0.366,0.025c-0.261,0-0.521-0.025-0.781-0.025L4.895,6.088
	c0,0.255,0.621-0.026,0.621,0.655v2.159c0,0.785-0.288,1.613-1.541,1.613c-0.901,0-1.594-0.487-1.594-1.553V6.569
	c0-0.481,0.447-0.293,0.447-0.481c0-0.081-0.181-0.067-0.213-0.067c-0.208,0-0.421,0.025-0.634,0.025
	c-0.18,0-0.347-0.025-0.52-0.025L1.314,6.088C1.314,6.304,1.854,6.142,1.854,6.536"/>
<path fill="#FFFFFF" d="M7.111,7.334v2.458c0,0.935-0.587,0.64-0.587,0.875c0,0.034,0.008,0.073,0.087,0.073
	c0.047,0,0.394-0.024,0.627-0.024c0.327,0,0.513,0.024,0.673,0.024c0.066,0,0.073-0.054,0.073-0.087
	c0-0.182-0.586,0.055-0.586-0.548V7.38c0-0.135,0.021-0.154,0.046-0.154l0.141,0.127l2.867,3.229
	c0.14,0.153,0.207,0.187,0.254,0.187c0.053,0,0.06-0.093,0.06-0.287V6.62c0-0.486,0.393-0.367,0.393-0.539l-0.066-0.061
	c-0.161,0-0.448,0.026-0.674,0.026c-0.213,0-0.407-0.026-0.607-0.026L9.739,6.086c0,0.221,0.741-0.033,0.741,0.841v2.789
	c0,0.053-0.008,0.073-0.02,0.073l-0.081-0.073L7.198,6.174C7.158,6.126,7.098,6.021,7.025,6.021c-0.101,0-0.208,0.026-0.307,0.026
	c-0.107,0-0.208-0.026-0.313-0.026L6.304,6.086C6.304,6.334,7.111,5.946,7.111,7.334"/>
<path fill="#FFFFFF" d="M12.255,6.594v3.415c0,0.659-0.52,0.439-0.52,0.633c0,0.067,0.02,0.099,0.139,0.099
	c0.094,0,0.234-0.024,0.642-0.024c0.286,0,0.573,0.024,0.727,0.024c0.113,0,0.134-0.018,0.134-0.064
	c0-0.201-0.594-0.047-0.594-0.501V6.594c0-0.501,0.48-0.348,0.48-0.508c0-0.053-0.021-0.065-0.127-0.065
	c-0.207,0-0.413,0.025-0.62,0.025c-0.248,0-0.487-0.025-0.734-0.025c-0.053,0-0.066,0.013-0.066,0.072
	C11.715,6.241,12.249,6.105,12.255,6.594"/>
<path fill="#FFFFFF" d="M14.123,6.534l1.647,3.896c0.06,0.14,0.14,0.42,0.247,0.42c0.101,0,0.147-0.22,0.221-0.387l1.66-3.93
	c0.187-0.446,0.374-0.279,0.374-0.428c0-0.06-0.04-0.086-0.113-0.086c-0.093,0-0.194,0.026-0.514,0.026
	c-0.146,0-0.294-0.026-0.44-0.026c-0.067,0-0.1,0.02-0.1,0.086c0,0.155,0.427,0.028,0.427,0.336
	c0.026,0.141-0.054,0.353-0.094,0.454l-1.16,2.859c-0.035,0.079-0.054,0.188-0.121,0.188c-0.074,0-0.121-0.152-0.267-0.507
	l-1.167-2.747c-0.027-0.062-0.06-0.167-0.06-0.261c0-0.24,0.28-0.248,0.273-0.341l-0.093-0.067c-0.094,0-0.347,0.026-0.527,0.026
	c-0.2,0-0.406-0.026-0.614-0.026c-0.06,0-0.093,0.032-0.093,0.094C13.609,6.262,13.956,6.135,14.123,6.534"/>
<path fill="#FFFFFF" d="M18.607,6.207c0.361,0.053,0.361,0.373,0.361,0.674v3.041c0,0.313-0.014,0.501-0.187,0.58
	c-0.213,0.105-0.281,0.093-0.294,0.174c0,0.053,0.04,0.066,0.101,0.066c0.267,0,0.546-0.021,0.813-0.026
	c0.507-0.014,1.014,0.026,1.521,0.026c0.294,0,0.44,0.012,0.654-0.227c0.162-0.174,0.333-0.408,0.333-0.647l-0.053-0.081
	c-0.086,0-0.313,0.688-1.854,0.688c-0.561,0-0.507-0.16-0.507-0.554V8.694c0-0.1-0.02-0.212,0.12-0.212h0.987
	c0.56,0,0.334,0.585,0.541,0.585c0.046,0,0.074-0.025,0.074-0.085c0-0.182-0.014-0.354-0.014-0.528c0-0.213,0.014-0.438,0.014-0.674
	c0-0.053-0.021-0.126-0.074-0.126c-0.16,0,0.02,0.532-0.674,0.532h-0.721c-0.266,0-0.253,0-0.253-0.225V6.721
	c0-0.447-0.013-0.421,0.627-0.421c0.267,0,0.961-0.04,1.135,0.187c0.106,0.154,0,0.474,0.159,0.474c0.04,0,0.134-0.053,0.134-0.793
	c0-0.081-0.013-0.146-0.067-0.146c-0.206,0-0.819,0.026-0.953,0.026c-0.28,0-0.627-0.026-1.887-0.026
	c-0.194,0-0.234,0.026-0.234,0.079C18.407,6.18,18.554,6.194,18.607,6.207"/>
<path fill="#FFFFFF" d="M23.071,6.486c0-0.261,0.141-0.245,0.381-0.245c0.654,0,1.273,0.271,1.273,1.086
	c0,0.825-0.64,0.946-0.927,0.946c-0.314,0-0.727,0.034-0.727-0.094V6.486z M22.545,6.693v3.393c0,0.507-0.487,0.413-0.487,0.582
	l0.066,0.074c0.253,0,0.508-0.026,0.761-0.026c0.554,0,0.707,0.026,0.766,0.026c0.054,0,0.114,0.012,0.114-0.054
	c0-0.229-0.694-0.021-0.694-0.596V8.688c0-0.066-0.04-0.186,0.173-0.186c0.748,0,0.648-0.021,0.888,0.353l0.741,1.166
	c0.253,0.379,0.513,0.722,1,0.722c0.06,0,0.434,0,0.434-0.081c0-0.162-0.326,0.086-0.808-0.647l-1.113-1.688
	c0.467-0.188,0.84-0.634,0.84-1.152c0-1.287-1.474-1.153-1.581-1.153c-0.347,0-0.728,0.026-1.114,0.026
	c-0.34,0-0.307-0.026-0.427-0.026c-0.079,0-0.133,0.039-0.133,0.079C21.971,6.326,22.545,6.053,22.545,6.693"/>
<path fill="#FFFFFF" d="M26.635,10.423c0.027,0.119,0.634,0.366,1.128,0.366c1.514,0,1.907-0.842,1.907-1.401
	c0-1.841-2.708-1.106-2.708-2.36c0-0.614,0.561-0.867,1.087-0.867c0.587,0,1.074,0.293,1.274,0.867
	c0.019,0.06,0.067,0.201,0.14,0.201c0.066,0,0.08-0.048,0.073-0.102l-0.098-0.905c-0.009-0.075-0.041-0.097-0.082-0.097
	c-0.067,0-0.08,0.075-0.141,0.075c-0.093,0-0.312-0.24-1.12-0.24c-0.768,0-1.481,0.407-1.481,1.255c0,1.74,2.708,1.018,2.708,2.308
	c0,0.7-0.621,1.053-1.255,1.053c-0.92,0-1.319-0.693-1.399-1c-0.034-0.14-0.034-0.22-0.127-0.22c-0.067,0-0.101,0.073-0.073,0.206
	L26.635,10.423z"/>
<path fill="#FFFFFF" d="M30.666,6.594v3.415c0,0.659-0.52,0.439-0.52,0.633c0,0.067,0.02,0.099,0.141,0.099
	c0.093,0,0.232-0.024,0.638-0.024c0.288,0,0.575,0.024,0.728,0.024c0.114,0,0.134-0.018,0.134-0.064
	c0-0.201-0.593-0.047-0.593-0.501V6.594c0-0.501,0.48-0.348,0.48-0.508c0-0.053-0.021-0.065-0.126-0.065
	c-0.206,0-0.414,0.025-0.622,0.025c-0.246,0-0.485-0.025-0.732-0.025c-0.054,0-0.068,0.013-0.068,0.072
	C30.125,6.241,30.659,6.105,30.666,6.594"/>
<path fill="#FFFFFF" d="M32.1,7.008c0.087,0,0.094-0.088,0.113-0.154c0.12-0.367,0.134-0.467,0.547-0.467h1.086
	c0.094,0.008,0.067,0.261,0.067,0.307v3.468c0,0.4-0.526,0.334-0.526,0.494c0,0.066,0.02,0.087,0.08,0.087
	c0.04,0,0.167-0.026,0.913-0.026c0.194,0,0.381,0.026,0.541,0.026c0.066,0,0.06-0.06,0.06-0.081c0-0.206-0.54,0.015-0.54-0.547v-3.4
	c0-0.354-0.034-0.327,0.266-0.327h0.955c0.68,0,0.32,0.506,0.566,0.506c0.086,0,0.081-0.079,0.074-0.146l-0.034-0.533
	c-0.007-0.153-0.04-0.193-0.193-0.193c-0.134,0-0.747,0.026-1.955,0.026c-0.86,0-1.374-0.026-1.894-0.026
	c-0.121,0-0.113,0.18-0.121,0.26l-0.072,0.646L32.1,7.008z"/>
<path fill="#FFFFFF" d="M36.87,6.439l1.115,1.781c0.052,0.081,0.153,0.213,0.153,0.341v1.613c0,0.473-0.514,0.301-0.514,0.486
	c0,0.075,0.04,0.081,0.101,0.081c0.06,0,0.299-0.026,0.599-0.026c0.248,0,0.634,0.026,0.734,0.026c0.093,0,0.153-0.006,0.153-0.066
	c0-0.208-0.547-0.021-0.547-0.602V8.44c0-0.099,0.054-0.133,0.16-0.302l0.934-1.454c0.107-0.164,0.193-0.351,0.374-0.459
	c0.046-0.025,0.16-0.052,0.16-0.126l-0.073-0.079c-0.194,0-0.387,0.026-0.581,0.026c-0.161,0-0.327-0.026-0.487-0.026
	c-0.073,0-0.14,0.012-0.14,0.1c0,0.16,0.499,0.02,0.499,0.347c0,0.181-0.092,0.293-0.139,0.367l-0.687,1.113
	c-0.053,0.087-0.093,0.133-0.127,0.133c-0.04,0-0.08-0.04-0.133-0.118l-0.807-1.288c-0.04-0.062-0.12-0.167-0.12-0.274
	c0-0.192,0.314-0.199,0.314-0.313c0-0.06-0.082-0.065-0.128-0.065c-0.066,0-0.246,0.026-0.466,0.026
	c-0.454,0-0.581-0.026-0.76-0.026l-0.087,0.1C36.371,6.234,36.697,6.153,36.87,6.439"/>
<path fill="#FFFFFF" d="M43.511,7.953c0.541,0,0.653,0.421,0.653,0.895c0,0.646-0.212,1.787-1.066,1.787
	c-0.527,0-0.621-0.54-0.621-0.953C42.477,9.048,42.691,7.953,43.511,7.953 M43.097,10.789c0.947,0,1.514-0.915,1.514-1.782
	c0-0.686-0.374-1.207-1.094-1.207c-0.926,0-1.487,0.995-1.487,1.822C42.03,10.288,42.403,10.789,43.097,10.789"/>
<path fill="#FFFFFF" d="M46.847,5.819c-0.419,0-0.873,0.427-1.1,1.078c-0.241,0.704-0.234,1.05-0.313,1.05h-0.401
	c-0.092,0-0.186-0.014-0.186,0.127c0,0.133,0.094,0.119,0.186,0.119h0.38l0.041,0.061L45.1,11.356
	c-0.053,0.467-0.253,0.438-0.293,0.438c-0.153,0-0.101-0.34-0.228-0.34c-0.099,0-0.172,0.287-0.172,0.46l0.009,0.055
	c-0.195-0.028-0.341-0.058-0.432-0.058c-0.077,0-0.141,0.064-0.141,0.152c0,0.232,0.476,0.143,0.924,0.425
	c0.399,0.258,0.463,0.887,0.463,1.966v4.383c0,0.143-0.013,0.218-0.038,0.218c-0.04,0-0.078-0.038-0.142-0.103l-6.129-6.873
	c-0.129-0.155-0.219-0.155-0.399-0.155h-0.347c-0.257,0-0.45-0.039-0.552-0.039c-0.155,0-0.232,0.039-0.232,0.167
	c0,0.283,0.501,0.141,0.925,0.565c0.54,0.541,0.578,1.426,0.54,2.789l-0.102,3.341c-0.026,0.938-0.026,1.361-0.553,1.683
	c-0.283,0.168-0.552,0.104-0.552,0.36c0,0.104,0.051,0.128,0.167,0.128c0.142,0,0.411-0.063,0.784-0.063
	c0.668,0,1.157,0.063,1.466,0.063c0.206,0,0.296-0.012,0.296-0.167c0-0.231-0.31-0.089-0.618-0.244
	c-0.54-0.271-0.526-0.655-0.501-1.644l0.116-4.537c0-0.089,0.038-0.141,0.077-0.141c0.014,0,0.064,0.038,0.142,0.128l5.756,6.516
	c0.09,0.101,0.167,0.167,0.232,0.167c0.165,0,0.153-0.153,0.153-0.437v-6.965c0-0.604,0.116-1.015,0.347-1.222
	c0.207-0.181,0.451-0.09,0.451-0.321c0-0.09-0.09-0.154-0.244-0.154c-0.207,0-0.63,0.115-1.247,0.115l-0.116-0.004
	c0.257-0.119,0.592-0.412,0.671-1.128l0.279-2.434c0.021-0.181-0.012-0.255,0.168-0.255h0.346c0.094,0,0.187,0.014,0.187-0.119
	c0-0.141-0.093-0.127-0.187-0.127h-0.42l-0.006-0.112c0-0.128,0.153-1.716,0.66-1.716c0.3,0,0.326,0.293,0.427,0.293
	c0.112,0,0.112-0.225,0.112-0.392C47.146,5.9,47.134,5.819,46.847,5.819"/>
<rect x="72.124" fill-rule="evenodd" clip-rule="evenodd" fill="#E30613" width="9.239" height="29.875"/>
<rect x="82.504" fill-rule="evenodd" clip-rule="evenodd" fill="#E30613" width="18.298" height="29.875"/>
<path fill-rule="evenodd" clip-rule="evenodd" fill="#FFFFFF" d="M80.226,7.496l0.358,2.64c0-0.059-0.358,0.123-0.479,0
	c-0.421-1.319-1.859-3.178-3.479-3.118c-1.201,0.119-2.222,1.261-2.101,2.281c0.36,2.878,6.479,0.6,6.479,5.52
	c0,2.158-2.16,3.596-4.141,3.537c-1.259-0.06-2.76-0.178-4.019-1.138v-2.763h0.421c0.118,1.083,1.498,3.482,3.719,3.422
	c1.379-0.06,2.22-1.738,1.921-2.881c-0.902-3.18-5.64-0.541-5.821-4.919c-0.119-1.98,1.92-3.601,3.779-3.419
	C77.466,6.718,79.205,6.718,80.226,7.496z"/>
<path fill-rule="evenodd" clip-rule="evenodd" fill="#FFFFFF" d="M83.463,8.097l0.062-0.301l3.117-0.898v3.06
	c0.184-1.74,2.16-3.181,3.961-2.881c1.86,0.36,1.98,1.441,1.98,2.522c0.658-1.502,2.521-2.581,3.778-2.522
	c1.382,0.061,2.521,0.662,2.521,2.822v7.139c0,0.358,0,0.6,0.239,0.84c0.302,0.301,1.021,0.301,1.021,0.301v0.178h-4.74v-0.178
	c0,0,0.781,0,1.081-0.301c0.239-0.24,0.3-0.481,0.3-0.84v-6.3c0-1.921-0.721-2.22-1.739-2.341c-0.841-0.118-2.281,1.141-2.281,2.46
	v6.181c0,0.358,0.062,0.48,0.301,0.719c0.3,0.422,1.199,0.422,1.199,0.422v0.178h-4.919v-0.178c0,0,0.661-0.122,1.021-0.301
	c0.36-0.24,0.36-0.84,0.36-0.84v-6.42c0-1.318-0.662-1.979-1.56-2.221c-1.081-0.18-2.401,1.141-2.401,2.46v6.12
	c0,0.3,0.062,0.541,0.239,0.779c0.3,0.363,1.143,0.422,1.143,0.422v0.178h-4.92v-0.178c0.479,0,0.778-0.059,1.078-0.36
	c0.181-0.181,0.242-0.481,0.242-0.841V9.178c0,0,0-0.66-0.302-0.781C83.884,8.278,83.463,8.097,83.463,8.097z"/>
</svg>
